<svg width="24" height="24" viewBox="0 0 24 24" fill="none" xmlns="http://www.w3.org/2000/svg">
<path fill-rule="evenodd" clip-rule="evenodd" d="M12 1.89453C6.41697 1.89453 1.89473 6.42298 1.89473 11.9998C1.89473 16.4662 4.7917 20.2503 8.80526 21.5902C9.30774 21.6832 9.49384 21.3731 9.49384 21.1001C9.49384 20.8582 9.48763 20.2254 9.48143 19.3818C6.67131 19.9897 6.07579 18.0295 6.07579 18.0295C5.61674 16.8632 4.95298 16.5531 4.95298 16.5531C4.03489 15.9265 5.02122 15.9389 5.02122 15.9389C6.03237 16.0134 6.57206 16.9811 6.57206 16.9811C7.47154 18.5257 8.93553 18.0791 9.51245 17.8185C9.6055 17.1672 9.86604 16.7205 10.1514 16.4662C7.90578 16.2119 5.5485 15.3434 5.5485 11.4725C5.5485 10.3683 5.93932 9.46883 6.59067 8.76164C6.48521 8.50731 6.13782 7.47755 6.68992 6.088C6.68992 6.088 7.53978 5.81505 9.46902 7.12396C10.2755 6.90064 11.1377 6.78898 12 6.78277C12.8561 6.78898 13.7245 6.90064 14.531 7.12396C16.4602 5.81505 17.3101 6.088 17.3101 6.088C17.8622 7.47755 17.5148 8.50731 17.4093 8.76164C18.0545 9.46883 18.4453 10.3683 18.4453 11.4725C18.4453 15.3558 16.0818 16.2057 13.83 16.46C14.1898 16.7702 14.5186 17.3905 14.5186 18.3334C14.5186 19.6857 14.5061 20.7713 14.5061 21.1063C14.5061 21.3793 14.686 21.6894 15.2009 21.5902C19.2145 20.2503 22.1053 16.4662 22.1053 12.006C22.1053 6.42298 17.583 1.89453 12 1.89453Z" fill="#191717"/>
</svg>
